<svg xmlns="http://www.w3.org/2000/svg" version="1.1" xmlns:xlink="http://www.w3.org/1999/xlink" xmlns:svgjs="http://svgjs.dev/svgjs" width="1500" height="939" viewBox="0 0 1500 939"><g transform="matrix(1,0,0,1,-0.9090909090909918,-1.5145161290323017)"><svg viewBox="0 0 396 248" data-background-color="#11142d" preserveAspectRatio="xMidYMid meet" height="939" width="1500" xmlns="http://www.w3.org/2000/svg" xmlns:xlink="http://www.w3.org/1999/xlink"><g id="tight-bounds" transform="matrix(1,0,0,1,0.2400000000000091,0.4000000000000057)"><svg viewBox="0 0 395.52 247.2" height="247.2" width="395.52"><g><svg></svg></g><g><svg viewBox="0 0 395.52 247.2" height="247.2" width="395.52"><g transform="matrix(1,0,0,1,75.54432000000001,83.38782656206737)"><svg viewBox="0 0 244.43135999999996 80.42434687586523" height="80.42434687586523" width="244.43135999999996"><g><svg viewBox="0 0 244.43135999999996 80.42434687586523" height="80.42434687586523" width="244.43135999999996"><g><svg viewBox="0 0 244.43136 80.42434687586524" height="80.42434687586523" width="244.43135999999996"><g><svg viewBox="0 0 244.43136 80.42434687586524" height="80.42434687586524" width="244.43136"><g id="textblocktransform"><svg viewBox="0 0 244.43136 80.42434687586524" height="80.42434687586524" width="244.43136" id="textblock"><g><svg viewBox="0 0 244.43136 80.42434687586524" height="80.42434687586524" width="244.43136"><g transform="matrix(1,0,0,1,0,0)"><svg width="244.43136" viewBox="0.4 -35 108.33999999999999 35.65" height="80.42434687586524" data-palette-color="#ffffff"><path d="M36.9-5.25L41.7-5.25 41.7 0 24.75 0 24.75-5.25 30-5.25 27.5-11.75 13.85-11.75 11.35-5.25 17.1-5.25 17.1 0 0.4 0 0.4-5.25 5.1-5.25 15.25-29.1 10.95-29.1 10.95-34.3 31-34.3 31-29.1 26.65-29.1 36.9-5.25ZM15.65-16.45L25.7-16.45 20.8-29.1 20.55-29.1 15.65-16.45ZM54.4-4.95L59.45-4.95 59.45 0 43.15 0 43.15-4.95 48.15-4.95 48.15-29.35 43.15-29.35 43.15-34.3 54.4-34.3 54.4-4.95ZM90.3-23.55L90.3-18.6 86.85-18.6 76.55 0.65 73.2 0.65 62.6-18.6 59.4-18.6 59.4-23.55 72.65-23.55 72.65-19.1 69.15-19.1 75.5-6.75 81.6-19.1 77.95-19.1 77.95-23.55 90.3-23.55ZM100.09-28Q98.24-28 96.99-29 95.74-30 95.74-31.45L95.74-31.45Q95.74-33 96.99-34 98.24-35 100.09-35L100.09-35Q102.04-35 103.27-34 104.49-33 104.49-31.45L104.49-31.45Q104.49-29.95 103.27-28.98 102.04-28 100.09-28L100.09-28ZM103.69-4.95L108.74-4.95 108.74 0 92.44 0 92.44-4.95 97.44-4.95 97.44-18.6 92.44-18.6 92.44-23.55 103.69-23.55 103.69-4.95Z" opacity="1" transform="matrix(1,0,0,1,0,0)" fill="#ffffff" class="undefined-text-0" data-fill-palette-color="primary" id="text-0"></path></svg></g></svg></g></svg></g></svg></g></svg></g></svg></g></svg></g><path d="M213.099 77.388L213.099 22.349 10.597 22.349 10.597 224.851 213.099 224.851 213.099 169.812 205.846 169.812 205.846 217.598 17.85 217.598 17.85 29.602 205.846 29.602 205.846 77.388Z" fill="#ffffff" stroke="transparent" data-fill-palette-color="primary"></path></svg></g><defs></defs></svg><rect width="395.52" height="247.2" fill="none" stroke="none" visibility="hidden"></rect></g></svg></g></svg>