<svg xmlns="http://www.w3.org/2000/svg" version="1.1" xmlns:xlink="http://www.w3.org/1999/xlink" xmlns:svgjs="http://svgjs.dev/svgjs" width="1500" height="1500" viewBox="0 0 1500 1500"><rect width="1500" height="1500" fill="#ffffff"></rect><g transform="matrix(0.6666666666666666,0,0,0.6666666666666666,249.53162990823392,686.5877634365985)"><svg viewBox="0 0 396 50" data-background-color="#0b022d" preserveAspectRatio="xMidYMid meet" height="189" width="1500" xmlns="http://www.w3.org/2000/svg" xmlns:xlink="http://www.w3.org/1999/xlink"><g id="tight-bounds" transform="matrix(1,0,0,1,0.1854745563393294,0.16358593785776065)"><svg viewBox="0 0 395.52 49.700249848772785" height="49.700249848772785" width="395.52"><g><svg viewBox="0 0 471.5915640528463 59.259249999999994" height="49.700249848772785" width="395.52"><g><svg viewBox="0 0 471.5915640528463 59.259249999999994" height="59.259249999999994" width="471.5915640528463"><g id="textblocktransform"><svg viewBox="0 0 471.5915640528463 59.259249999999994" height="59.259249999999994" width="471.5915640528463" id="textblock"><g><svg viewBox="0 0 471.5915640528463 59.259249999999994" height="59.259249999999994" width="471.5915640528463"><g><svg><g></g><g></g></svg></g><g><svg><g><svg></svg></g><g></g></svg></g><g id="text-0"><svg viewBox="0 0 471.5915640528463 59.259249999999994" height="59.259249999999994" width="471.5915640528463"><g transform="matrix(1,0,0,1,0,11.037672230956815)"><svg width="395.5199999999999" viewBox="0.25 -36.22999954223633 389.54998779296875 36.630001068115234" height="37.183905538086364" data-palette-color="#f7fff7"><path d="M19.5-35.83L33.83 0 30.08 0Q29.43 0 29.03-0.33 28.63-0.65 28.43-1.15L28.43-1.15 25.08-9.8 9-9.8 5.65-1.15Q5.48-0.7 5.05-0.35 4.63 0 4 0L4 0 0.25 0 14.58-35.83 19.5-35.83ZM15.98-27.85L10.35-13.3 23.73-13.3 18.1-27.88Q17.55-29.23 17.03-31.25L17.03-31.25Q16.75-30.23 16.49-29.36 16.23-28.5 15.98-27.85L15.98-27.85ZM43.2-35.83L43.2-4.08 58.7-4.08 58.7 0 38.35 0 38.35-35.83 43.2-35.83ZM76.72 0L64.05 0 64.05-35.83 75.47-35.83Q78.77-35.83 81.16-35.18 83.55-34.52 85.08-33.33 86.62-32.13 87.36-30.39 88.1-28.65 88.1-26.48L88.1-26.48Q88.1-25.15 87.68-23.93 87.27-22.7 86.43-21.65 85.6-20.6 84.33-19.78 83.07-18.95 81.37-18.43L81.37-18.43Q85.3-17.65 87.3-15.6 89.3-13.55 89.3-10.2L89.3-10.2Q89.3-7.93 88.46-6.05 87.62-4.17 86.01-2.83 84.4-1.48 82.06-0.74 79.72 0 76.72 0L76.72 0ZM76.62-16.32L68.9-16.32 68.9-3.85 76.65-3.85Q78.72-3.85 80.21-4.33 81.7-4.8 82.66-5.66 83.62-6.53 84.07-7.71 84.52-8.9 84.52-10.33L84.52-10.33Q84.52-13.1 82.56-14.71 80.6-16.32 76.62-16.32L76.62-16.32ZM68.9-32L68.9-19.78 75.3-19.78Q77.35-19.78 78.85-20.23 80.35-20.68 81.33-21.48 82.32-22.28 82.8-23.41 83.27-24.55 83.27-25.9L83.27-25.9Q83.27-29.05 81.37-30.53 79.47-32 75.47-32L75.47-32 68.9-32ZM111.54-35.83L125.87 0 122.12 0Q121.47 0 121.07-0.33 120.67-0.65 120.47-1.15L120.47-1.15 117.12-9.8 101.04-9.8 97.69-1.15Q97.52-0.7 97.09-0.35 96.67 0 96.04 0L96.04 0 92.29 0 106.62-35.83 111.54-35.83ZM108.02-27.85L102.39-13.3 115.77-13.3 110.14-27.88Q109.59-29.23 109.07-31.25L109.07-31.25Q108.79-30.23 108.53-29.36 108.27-28.5 108.02-27.85L108.02-27.85ZM132.89-35.83L132.89-35.83Q133.54-35.83 133.85-35.66 134.17-35.5 134.57-35L134.57-35 155.32-8Q155.24-8.65 155.22-9.26 155.19-9.88 155.19-10.45L155.19-10.45 155.19-35.83 159.44-35.83 159.44 0 156.99 0Q156.42 0 156.03-0.2 155.64-0.4 155.27-0.88L155.27-0.88 134.54-27.85Q134.59-27.23 134.62-26.63 134.64-26.03 134.64-25.53L134.64-25.53 134.64 0 130.39 0 130.39-35.83 132.89-35.83ZM173.94-35.83L173.94 0 169.09 0 169.09-35.83 173.94-35.83ZM198.69-35.83L213.01 0 209.26 0Q208.61 0 208.21-0.33 207.81-0.65 207.61-1.15L207.61-1.15 204.26-9.8 188.19-9.8 184.84-1.15Q184.66-0.7 184.24-0.35 183.81 0 183.19 0L183.19 0 179.44 0 193.76-35.83 198.69-35.83ZM195.16-27.85L189.54-13.3 202.91-13.3 197.29-27.88Q196.74-29.23 196.21-31.25L196.21-31.25Q195.94-30.23 195.67-29.36 195.41-28.5 195.16-27.85L195.16-27.85ZM220.03-35.83L220.03-35.83Q220.68-35.83 221-35.66 221.31-35.5 221.71-35L221.71-35 242.46-8Q242.38-8.65 242.36-9.26 242.33-9.88 242.33-10.45L242.33-10.45 242.33-35.83 246.58-35.83 246.58 0 244.13 0Q243.56 0 243.17-0.2 242.78-0.4 242.41-0.88L242.41-0.88 221.68-27.85Q221.73-27.23 221.76-26.63 221.78-26.03 221.78-25.53L221.78-25.53 221.78 0 217.53 0 217.53-35.83 220.03-35.83ZM274.86-32.52L273.68-30.23Q273.46-29.85 273.21-29.66 272.96-29.48 272.56-29.48L272.56-29.48Q272.13-29.48 271.57-29.9 271.01-30.33 270.14-30.84 269.28-31.35 268.07-31.78 266.86-32.2 265.13-32.2L265.13-32.2Q263.51-32.2 262.26-31.76 261.01-31.33 260.17-30.58 259.33-29.83 258.91-28.81 258.48-27.8 258.48-26.63L258.48-26.63Q258.48-25.13 259.22-24.14 259.96-23.15 261.17-22.45 262.38-21.75 263.92-21.24 265.46-20.73 267.07-20.18 268.68-19.63 270.22-18.94 271.76-18.25 272.97-17.2 274.18-16.15 274.92-14.63 275.66-13.1 275.66-10.88L275.66-10.88Q275.66-8.53 274.86-6.46 274.06-4.4 272.52-2.88 270.98-1.35 268.74-0.48 266.51 0.4 263.66 0.4L263.66 0.4Q260.18 0.4 257.32-0.86 254.46-2.13 252.43-4.28L252.43-4.28 253.83-6.58Q254.03-6.85 254.32-7.04 254.61-7.23 254.96-7.23L254.96-7.23Q255.48-7.23 256.16-6.66 256.83-6.1 257.84-5.43 258.86-4.75 260.29-4.19 261.73-3.63 263.81-3.63L263.81-3.63Q265.53-3.63 266.88-4.1 268.23-4.58 269.17-5.44 270.11-6.3 270.61-7.5 271.11-8.7 271.11-10.18L271.11-10.18Q271.11-11.8 270.37-12.84 269.63-13.88 268.43-14.58 267.23-15.28 265.69-15.76 264.16-16.25 262.54-16.76 260.93-17.28 259.39-17.95 257.86-18.63 256.66-19.7 255.46-20.78 254.72-22.39 253.98-24 253.98-26.38L253.98-26.38Q253.98-28.28 254.72-30.05 255.46-31.83 256.86-33.2 258.26-34.58 260.32-35.4 262.38-36.23 265.06-36.23L265.06-36.23Q268.06-36.23 270.53-35.27 273.01-34.33 274.86-32.52L274.86-32.52ZM286.68-35.83L286.68-4.08 302.18-4.08 302.18 0 281.83 0 281.83-35.83 286.68-35.83ZM322.68-35.83L337 0 333.25 0Q332.6 0 332.2-0.33 331.8-0.65 331.6-1.15L331.6-1.15 328.25-9.8 312.18-9.8 308.82-1.15Q308.65-0.7 308.23-0.35 307.8 0 307.18 0L307.18 0 303.43 0 317.75-35.83 322.68-35.83ZM319.15-27.85L313.53-13.3 326.9-13.3 321.28-27.88Q320.73-29.23 320.2-31.25L320.2-31.25Q319.93-30.23 319.66-29.36 319.4-28.5 319.15-27.85L319.15-27.85ZM334.57-35.83L362.62-35.83 362.62-31.75 351.05-31.75 351.05 0 346.2 0 346.2-31.75 334.57-31.75 334.57-35.83ZM367.72-35.83L389.8-35.83 389.8-31.88 372.6-31.88 372.6-19.98 386.52-19.98 386.52-16.18 372.6-16.18 372.6-3.95 389.8-3.95 389.8 0 367.72 0 367.72-35.83Z" opacity="1" transform="matrix(1,0,0,1,0,0)" fill="#000000" class="undefined-text-0" data-fill-palette-color="primary"></path></svg></g><g><svg xmlns="http://www.w3.org/2000/svg" viewBox="4.999995231628418 5 22.000003814697266 21.000106811523438" x="409.5107499999999" y="0" height="59.259249999999994" width="62.080814052846364" class="icon-s-0" data-fill-palette-color="accent" id="s-0"><g data-name="Layer 2" fill="#ff85ec" data-fill-palette-color="accent"><path d="M5.5 19.32a0.46 0.46 0 0 1-0.23-0.06A0.49 0.49 0 0 1 5 18.82V7.5A2.5 2.5 0 0 1 7.5 5h8A2.5 2.5 0 0 1 18 7.5V14a2.5 2.5 0 0 1-2.5 2.5H9.66L5.79 19.23A0.52 0.52 0 0 1 5.5 19.32ZM7.5 6A1.5 1.5 0 0 0 6 7.5V17.85l3.21-2.26a0.52 0.52 0 0 1 0.29-0.09h6A1.5 1.5 0 0 0 17 14V7.5A1.5 1.5 0 0 0 15.5 6Z" fill="#000000" data-fill-palette-color="accent"></path><path d="M26.5 26a0.47 0.47 0 0 1-0.3-0.1L22.33 23H16.5A2.5 2.5 0 0 1 14 20.5v-4a0.5 0.5 0 0 1 1 0v4A1.5 1.5 0 0 0 16.5 22h6a0.54 0.54 0 0 1 0.3 0.1L26 24.5v-11A1.5 1.5 0 0 0 24.5 12h-7a0.5 0.5 0 0 1 0-1h7A2.5 2.5 0 0 1 27 13.5v12a0.51 0.51 0 0 1-0.28 0.45A0.54 0.54 0 0 1 26.5 26Z" fill="#000000" data-fill-palette-color="accent"></path><path d="M13.5 13.5A0.5 0.5 0 0 1 13 13V10a1.5 1.5 0 0 0-3 0v3a0.5 0.5 0 0 1-1 0V10a2.5 2.5 0 0 1 5 0v3A0.5 0.5 0 0 1 13.5 13.5Z" fill="#000000" data-fill-palette-color="accent"></path><path d="M13.5 11.5h-4a0.5 0.5 0 0 1 0-1h4a0.5 0.5 0 0 1 0 1Z" fill="#000000" data-fill-palette-color="accent"></path><path d="M23.54 16h-5a0.5 0.5 0 0 1 0-1h5a0.5 0.5 0 0 1 0 1Z" fill="#000000" data-fill-palette-color="accent"></path><path d="M18.46 20a0.5 0.5 0 0 1-0.5-0.42 0.5 0.5 0 0 1 0.42-0.57s3.88-0.68 3.75-3a0.5 0.5 0 1 1 1-0.06c0.19 3.2-4.39 4-4.58 4Z" fill="#000000" data-fill-palette-color="accent"></path><path d="M23.63 20h-0.08c-0.2 0-4.78-0.82-4.59-4a0.49 0.49 0 0 1 0.53-0.47A0.5 0.5 0 0 1 20 16c-0.14 2.31 3.71 3 3.75 3a0.5 0.5 0 0 1-0.08 1Z" fill="#000000" data-fill-palette-color="accent"></path><path d="M21.5 16a0.5 0.5 0 0 1-0.5-0.5v-1a0.5 0.5 0 0 1 1 0v1A0.5 0.5 0 0 1 21.5 16Z" fill="#000000" data-fill-palette-color="accent"></path></g></svg></g></svg></g></svg></g></svg></g></svg></g><g></g></svg></g><defs></defs></svg><rect width="395.52" height="49.700249848772785" fill="none" stroke="none" visibility="hidden"></rect></g></svg></g></svg>